<svg width="13" height="8" viewBox="0 0 13 8" fill="none" xmlns="http://www.w3.org/2000/svg">
<path d="M12.7922 0.66864L12.3664 0.221893C12.3017 0.153545 12.2237 0.0990926 12.1372 0.0618896C12.0507 0.0246867 11.9576 0.00552368 11.8635 0.00552368C11.7693 0.00552368 11.6762 0.0246867 11.5897 0.0618896C11.5033 0.0990926 11.4253 0.153545 11.3605 0.221893L6.50293 5.28308L1.63971 0.216278C1.57497 0.147961 1.49698 0.0935495 1.41052 0.056366C1.32406 0.0191824 1.23096 0 1.13684 0C1.04272 0 0.949558 0.0191824 0.863098 0.056366C0.776638 0.0935495 0.698647 0.147961 0.633911 0.216278L0.208008 0.660278C0.0744143 0.801997 0 0.989383 0 1.18414C0 1.3789 0.0744143 1.56632 0.208008 1.70804L5.99823 7.76239C6.06206 7.83378 6.13957 7.89158 6.2262 7.9324C6.31282 7.97323 6.40682 7.99621 6.5025 8H6.5047C6.60012 7.99601 6.69375 7.97295 6.78009 7.93213C6.86643 7.89131 6.94374 7.8336 7.00739 7.76239L12.7922 1.72443C12.9269 1.58128 13.0013 1.39178 13 1.19522C13.0014 0.999427 12.927 0.810689 12.7922 0.66864Z" fill="#0079C2"/>
</svg>
