<svg width="36" height="32" viewBox="0 0 36 32" fill="none" xmlns="http://www.w3.org/2000/svg">
<path d="M0 12.0847L18.0135 0.758679L36 12.0847L35.3798 13.0872L18.0135 2.16765L0.647191 13.0872L0 12.0847ZM14.373 14.3065H21.6539C22.409 14.3065 23.1101 14.6317 23.6225 15.1465C24.1079 15.6342 24.4315 16.3387 24.4315 17.0974V21.3785C24.4315 22.1372 24.1079 22.8417 23.6225 23.3294C23.1101 23.8442 22.409 24.1694 21.6539 24.1694H14.373C13.591 24.1694 12.8899 23.8442 12.4045 23.3294C11.8921 22.8417 11.5685 22.1372 11.5685 21.3785V17.0974C11.5685 16.3387 11.8921 15.6342 12.4045 15.1465C12.8899 14.6317 13.591 14.3065 14.373 14.3065ZM21.6539 15.5258H18.6067V22.95H21.6539C22.0854 22.95 22.4899 22.7875 22.7595 22.4894C23.0562 22.1914 23.2449 21.812 23.2449 21.3785V17.0974C23.2449 16.6638 23.0562 16.2845 22.7595 15.9865C22.4899 15.6884 22.0854 15.5258 21.6539 15.5258ZM17.4202 15.5258H14.373C13.9146 15.5258 13.5371 15.6884 13.2404 15.9865C12.9438 16.2845 12.782 16.6638 12.782 17.0974V21.3785C12.782 21.812 12.9438 22.1914 13.2404 22.4894C13.5371 22.7875 13.9146 22.95 14.373 22.95H17.4202V15.5258ZM31.982 12.5724V27.746C31.982 28.9111 31.4966 29.9678 30.7416 30.7265C30.0135 31.5123 28.9618 32 27.8022 32H8.19775C7.0382 32 6.01348 31.5123 5.25843 30.7265C4.50337 29.9678 4.04494 28.9111 4.04494 27.746V12.5724H5.23146V27.746C5.23146 28.5859 5.58202 29.3446 6.12135 29.9136C6.63371 30.4555 7.38876 30.8078 8.19775 30.8078H27.8022C28.6382 30.8078 29.3663 30.4555 29.9056 29.9136C30.4449 29.3446 30.7685 28.5859 30.7685 27.746V12.5724H31.982ZM4.90786 5.69009V0H10.2202V3.68501H9.00674V1.21931H6.09438V5.69009H4.90786Z" fill="#13B5EA"/>
</svg>
